<svg width="233" height="73" viewBox="0 0 233 73" fill="none" xmlns="http://www.w3.org/2000/svg">
<path d="M45.5921 72.368V49.0347H57.2588V72.368H45.5921Z" fill="#191100"/>
<path d="M53.968 33.0011C53.4347 32.8072 52.8591 32.7014 52.2588 32.7014H50.5921C47.8307 32.7014 45.5921 34.94 45.5921 37.7014V39.368C45.5921 41.5291 46.9632 43.37 48.8829 44.0683C49.4162 44.2622 49.9918 44.368 50.5921 44.368H52.2588C55.0202 44.368 57.2588 42.1295 57.2588 39.368V37.7014C57.2588 35.5403 55.8877 33.6994 53.968 33.0011Z" fill="#191100"/>
<path d="M4.75879 44.368L4.75891 2.36804H232.259V13.4514L16.4256 14.0347V32.7014H39.7589V72.368H4.75891V56.368C4.75891 53.6066 6.99749 51.368 9.75891 51.368H11.4256C12.0267 51.368 12.603 51.4741 13.1368 51.6686C15.0555 52.3674 16.4256 54.2077 16.4256 56.368V60.7014H28.6756V44.368H4.75879Z" fill="#191100"/>
<path d="M63.0921 72.368V29.2014L22.2588 29.2014V17.5347H115.592V29.2014L74.7588 29.2014V72.368H63.0921Z" fill="#191100"/>
<path d="M81.7588 72.368V32.7014H115.009V42.0347H92.2588V45.5347H115.009V57.2014H92.8421V60.7014H115.009V72.368H81.7588Z" fill="#191100"/>
<path d="M121.425 72.368V17.5347H232.259V29.2014H133.092V39.7014H156.425V50.2014H133.092V60.7014H156.425V72.368H121.425Z" fill="#191100"/>
<path fill-rule="evenodd" clip-rule="evenodd" d="M189.959 32.9412C189.533 32.786 189.072 32.7014 188.592 32.7014L163.425 32.7014V72.3681H175.092V66.5348L180.925 72.368H192.592L180.925 60.7014H188.592C190.801 60.7014 192.592 58.9105 192.592 56.7014V36.7014C192.592 34.9725 191.495 33.4998 189.959 32.9412ZM175.092 49.0347V44.368H179.925C180.046 44.368 180.161 44.3893 180.268 44.4281C180.651 44.5679 180.925 44.936 180.925 45.368V48.0347C180.925 48.587 180.478 49.0347 179.925 49.0347H175.092Z" fill="#191100"/>
<path fill-rule="evenodd" clip-rule="evenodd" d="M197.259 72.368L208.925 32.7014H220.592L232.842 72.368H220.592L219.425 67.7013H210.675V67.1829L209.509 72.368H197.259ZM213.184 56.0347H216.509L214.759 49.0347L213.184 56.0347Z" fill="#191100"/>
<path d="M12.6667 12.6666V31.3333L16.4255 32.7014V14.0347L12.6667 12.6666Z" fill="#191100"/>
<path d="M1 55C1 52.2386 3.23858 50 6 50L9.75877 51.3681C6.99735 51.3681 4.75877 53.6067 4.75877 56.3681L1 55Z" fill="#191100"/>
<path d="M6 50H7.66666L11.4254 51.3681H9.75877L6 50Z" fill="#191100"/>
<path d="M18.5 27.8333V16.1666L22.2588 17.5347V29.2014L18.5 27.8333Z" fill="#191100"/>
<path d="M7.66675 50C8.26784 50 8.84416 50.1061 9.37801 50.3005L13.1347 51.6678C12.6014 51.4739 12.0258 51.3681 11.4255 51.3681L7.66675 50Z" fill="#191100"/>
<path d="M24.9168 43H1L4.75877 44.3681H28.6756L24.9168 43Z" fill="#191100"/>
<path d="M9.37793 50.3005C11.2966 50.9994 12.6667 52.8397 12.6667 55L16.4254 56.3681C16.4254 54.2078 15.0554 52.3674 13.1367 51.6686L9.37793 50.3005Z" fill="#191100"/>
<path d="M12.6667 55V59.3333L16.4255 60.7014V56.3681L12.6667 55Z" fill="#191100"/>
<path d="M12.6667 31.3334H36.0001L39.7589 32.7015H16.4255L12.6667 31.3334Z" fill="#191100"/>
<path d="M12.6667 59.3334H24.9167L28.6755 60.7015H16.4255L12.6667 59.3334Z" fill="#191100"/>
<path d="M24.9167 59.3333V43L28.6755 44.3681V60.7014L24.9167 59.3333Z" fill="#191100"/>
<path d="M36 71H1L4.75877 72.3681H39.7588L36 71Z" fill="#191100"/>
<path d="M59.3333 27.8334L18.5 27.8334L22.2588 29.2015L63.0921 29.2015L59.3333 27.8334Z" fill="#191100"/>
<path d="M36 31.3334V71L39.7588 72.3681V32.7015L36 31.3334Z" fill="#191100"/>
<path d="M45.0768 37.5139L42.8842 36.7159C42.3734 36.53 41.8333 36.9082 41.8333 37.4517C41.8333 37.7809 42.0391 38.075 42.3485 38.1876L44.5411 38.9856C45.0519 39.1715 45.592 38.7933 45.592 38.2498C45.592 37.9206 45.3861 37.6265 45.0768 37.5139Z" fill="#191100"/>
<path d="M42.0043 35.0321C42.5669 32.9389 44.4543 31.3884 46.7123 31.3348C46.792 31.3329 46.8716 31.3473 46.9466 31.3746C47.6657 31.6364 47.6367 33.5963 47.0904 34.1323C46.5246 34.6874 46.0903 35.376 45.8383 36.1471C45.5998 36.877 44.8289 37.4237 44.1073 37.1611L43.0698 36.7835C42.3274 36.5132 41.7992 35.7951 42.0043 35.0321Z" fill="#191100"/>
<path d="M42.5357 40.5571C43.1214 41.5394 44.0344 42.3039 45.1241 42.7002L48.8808 44.0676C47.3619 43.5144 46.1867 42.2457 45.763 40.6693C45.5579 39.9063 45.0979 39.1882 44.3554 38.918C43.1296 38.4718 41.8676 39.4367 42.5357 40.5571Z" fill="#191100"/>
<path d="M50.7398 32.1486L48.5471 31.3506C48.5159 31.3392 48.4829 31.3334 48.4497 31.3334C48.1308 31.3334 48.0525 31.7772 48.3522 31.8862L50.5448 32.6843C50.576 32.6956 50.609 32.7015 50.6423 32.7015C50.9612 32.7015 51.0394 32.2577 50.7398 32.1486Z" fill="#191100"/>
<path d="M53.968 33.0012L50.2092 31.6331C49.8858 31.5155 49.8156 31.8122 50.1389 31.9299L52.1454 32.6602C52.2204 32.6875 52.2996 32.701 52.3794 32.7029C52.9362 32.7161 53.4705 32.8203 53.968 33.0012Z" fill="#191100"/>
<path d="M45.124 42.7002C45.6215 42.8811 46.1558 42.9853 46.7126 42.9985C46.7924 43.0004 46.8716 43.0139 46.9466 43.0412L48.953 43.7715C49.2764 43.8892 49.2061 44.1859 48.8828 44.0683L45.124 42.7002Z" fill="#191100"/>
<path d="M50.5448 44.3509L48.3522 43.5528C48.0525 43.4438 48.1308 43 48.4497 43C48.4829 43 48.5159 43.0058 48.5471 43.0172L50.7398 43.8152C51.0394 43.9243 50.9612 44.3681 50.6423 44.3681C50.609 44.3681 50.576 44.3623 50.5448 44.3509Z" fill="#191100"/>
<path d="M41.8333 71V47.6666L45.592 49.0347V72.368L41.8333 71Z" fill="#191100"/>
<path d="M53.3291 35.0321C52.9053 33.4557 51.7302 32.187 50.2112 31.6338L53.968 33.0011C55.0577 33.3975 55.9706 34.162 56.5563 35.1443C57.2244 36.2646 55.9624 37.2295 54.7366 36.7834C53.9942 36.5132 53.5341 35.7951 53.3291 35.0321Z" fill="#191100"/>
<path d="M41.8333 47.6666H53.4999L57.2587 49.0347H45.592L41.8333 47.6666Z" fill="#191100"/>
<path d="M52.0016 41.5691C52.5674 41.014 53.0017 40.3254 53.2537 39.5543C53.4922 38.8244 54.2631 38.2778 54.9847 38.5404L56.0222 38.918C56.7646 39.1882 57.2929 39.9063 57.0878 40.6693C56.5251 42.7625 54.6377 44.313 52.3797 44.3666C52.3 44.3685 52.2204 44.3541 52.1454 44.3268C51.4263 44.0651 51.4553 42.1051 52.0016 41.5691Z" fill="#191100"/>
<path d="M56.2079 38.9856L54.0152 38.1876C53.7059 38.075 53.5 37.7809 53.5 37.4517C53.5 36.9082 54.0402 36.53 54.5509 36.7159L56.7435 37.5139C57.0529 37.6265 57.2588 37.9206 57.2588 38.2498C57.2588 38.7933 56.7186 39.1715 56.2079 38.9856Z" fill="#191100"/>
<path d="M18.5 16.1666H111.833L115.592 17.5347H22.2588L18.5 16.1666Z" fill="#191100"/>
<path d="M53.4999 71H41.8333L45.592 72.3681H57.2587L53.4999 71Z" fill="#191100"/>
<path d="M53.5 47.6666V71L57.2588 72.368V49.0347L53.5 47.6666Z" fill="#191100"/>
<path d="M59.3333 71V27.8334L63.092 29.2015V72.3681L59.3333 71Z" fill="#191100"/>
<path d="M71 27.8334V71L74.7588 72.3681V29.2015L71 27.8334Z" fill="#191100"/>
<path d="M70.9999 71H59.3333L63.092 72.3681H74.7587L70.9999 71Z" fill="#191100"/>
<path d="M78 71V31.3334L81.7588 32.7015V72.3681L78 71Z" fill="#191100"/>
<path d="M111.833 27.8334L71 27.8334L74.7588 29.2015L115.592 29.2015L111.833 27.8334Z" fill="#191100"/>
<path d="M88.5 40.6666V44.1666L92.2588 45.5347V42.0347L88.5 40.6666Z" fill="#191100"/>
<path d="M78 31.3334H111.25L115.009 32.7015H81.7588L78 31.3334Z" fill="#191100"/>
<path d="M89.0833 55.8334V59.3334L92.842 60.7015V57.2015L89.0833 55.8334Z" fill="#191100"/>
<path d="M111.25 40.6666H88.5L92.2588 42.0347H115.009L111.25 40.6666Z" fill="#191100"/>
<path d="M1 1H228.5L232.259 2.36808H4.75877L1 1Z" fill="#191100"/>
<path d="M88.5 44.1666H111.25L115.009 45.5347H92.2588L88.5 44.1666Z" fill="#191100"/>
<path d="M111.833 16.1666V27.8333L115.592 29.2014V17.5347L111.833 16.1666Z" fill="#191100"/>
<path d="M111.25 71H78L81.7588 72.3681H115.009L111.25 71Z" fill="#191100"/>
<path d="M111.25 55.8334H89.0833L92.842 57.2015H115.009L111.25 55.8334Z" fill="#191100"/>
<path d="M89.0833 59.3334H111.25L115.009 60.7015H92.842L89.0833 59.3334Z" fill="#191100"/>
<path d="M111.25 31.3334V40.6667L115.009 42.0348V32.7015L111.25 31.3334Z" fill="#191100"/>
<path d="M228.5 12.0834L12.6667 12.6667L16.4255 14.0348L232.259 13.4515L228.5 12.0834Z" fill="#191100"/>
<path d="M111.25 44.1666V55.8333L115.009 57.2014V45.5347L111.25 44.1666Z" fill="#191100"/>
<path d="M117.667 71V16.1666L121.426 17.5347V72.368L117.667 71Z" fill="#191100"/>
<path d="M111.25 59.3334V71L115.009 72.3681V60.7015L111.25 59.3334Z" fill="#191100"/>
<path d="M129.333 27.8334V38.3334L133.092 39.7015V29.2015L129.333 27.8334Z" fill="#191100"/>
<path d="M129.333 48.8334V59.3334L133.092 60.7015V50.2015L129.333 48.8334Z" fill="#191100"/>
<path d="M129.333 38.3334H152.667L156.425 39.7015H133.092L129.333 38.3334Z" fill="#191100"/>
<path d="M152.667 48.8334H129.333L133.092 50.2015H156.425L152.667 48.8334Z" fill="#191100"/>
<path d="M152.667 71H117.667L121.426 72.3681H156.426L152.667 71Z" fill="#191100"/>
<path d="M129.333 59.3334H152.667L156.425 60.7015H133.092L129.333 59.3334Z" fill="#191100"/>
<path d="M152.667 38.3334V48.8334L156.426 50.2015V39.7015L152.667 38.3334Z" fill="#191100"/>
<path d="M152.667 59.3334V71L156.426 72.3681V60.7015L152.667 59.3334Z" fill="#191100"/>
<path d="M159.667 31.3334V71L163.426 72.3681V32.7015L159.667 31.3334Z" fill="#191100"/>
<path d="M117.667 16.1666H228.5L232.259 17.5347H121.426L117.667 16.1666Z" fill="#191100"/>
<path d="M184.833 31.3334L159.667 31.3334L163.426 32.7015L188.592 32.7015L184.833 31.3334Z" fill="#191100"/>
<path d="M171.333 47.6667V43L175.092 44.3681V49.0347L171.333 47.6667Z" fill="#191100"/>
<path d="M228.5 27.8334H129.333L133.092 29.2015H232.259L228.5 27.8334Z" fill="#191100"/>
<path d="M171.333 43H176.167L179.925 44.3681H175.092L171.333 43Z" fill="#191100"/>
<path d="M176.167 47.6666H171.333L175.092 49.0347H179.925L176.167 47.6666Z" fill="#191100"/>
<path d="M159.667 71H171.333L175.092 72.3681H163.426L159.667 71Z" fill="#191100"/>
<path d="M176.167 43C176.287 43 176.402 43.0212 176.509 43.0601L180.267 44.428C180.16 44.3892 180.045 44.3681 179.925 44.3681L176.167 43Z" fill="#191100"/>
<path d="M176.509 43.0601C176.893 43.1998 177.167 43.5679 177.167 44L180.925 45.368C180.925 44.936 180.651 44.5679 180.268 44.4281L176.509 43.0601Z" fill="#191100"/>
<path d="M177.167 44V46.6667L180.925 48.0347V45.3681L177.167 44Z" fill="#191100"/>
<path d="M177.167 46.6666C177.167 47.2189 176.719 47.6666 176.167 47.6666L179.925 49.0347C180.478 49.0347 180.925 48.587 180.925 48.0347L177.167 46.6666Z" fill="#191100"/>
<path d="M171.333 71V65.1667L175.092 66.5348V72.3681L171.333 71Z" fill="#191100"/>
<path d="M186.201 31.5732C185.774 31.418 185.314 31.3334 184.833 31.3334L188.592 32.7015C189.072 32.7015 189.533 32.7861 189.959 32.9413L186.201 31.5732Z" fill="#191100"/>
<path d="M177.167 71L171.333 65.1667L175.092 66.5348L180.925 72.3681L177.167 71Z" fill="#191100"/>
<path d="M188.833 35.3333C188.833 33.605 187.737 32.1328 186.202 31.5737L189.959 32.9412C191.495 33.4998 192.592 34.9725 192.592 36.7014L188.833 35.3333Z" fill="#191100"/>
<path d="M177.167 59.3334H184.833L188.592 60.7015H180.925L177.167 59.3334Z" fill="#191100"/>
<path d="M188.833 55.3334V35.3334L192.592 36.7015V56.7015L188.833 55.3334Z" fill="#191100"/>
<path d="M177.167 59.3334L188.833 71L192.592 72.3681L180.925 60.7015L177.167 59.3334Z" fill="#191100"/>
<path d="M184.833 59.3334C187.042 59.3334 188.833 57.5425 188.833 55.3334L192.592 56.7015C192.592 58.9106 190.801 60.7015 188.592 60.7015L184.833 59.3334Z" fill="#191100"/>
<path d="M188.833 71H177.167L180.925 72.3681H192.592L188.833 71Z" fill="#191100"/>
<path d="M193.5 71L205.167 31.3334L208.925 32.7015L197.259 72.3681L193.5 71Z" fill="#191100"/>
<path d="M205.167 31.3334H216.833L220.592 32.7015H208.926L205.167 31.3334Z" fill="#191100"/>
<path d="M205.75 71H193.5L197.259 72.3681H209.509L205.75 71Z" fill="#191100"/>
<path d="M211 47.6666L209.425 54.6666L213.184 56.0347L214.759 49.0347L211 47.6666Z" fill="#191100"/>
<path d="M212.75 54.6666L211 47.6666L214.759 49.0347L216.509 56.0347L212.75 54.6666Z" fill="#191100"/>
<path d="M228.5 1V12.0833L232.259 13.4514V2.36808L228.5 1Z" fill="#191100"/>
<path d="M206.917 65.8148V66.3333L210.676 67.7014V67.1829L206.917 65.8148Z" fill="#191100"/>
<path d="M212.75 54.6666H209.425L213.184 56.0347H216.509L212.75 54.6666Z" fill="#191100"/>
<path d="M206.917 65.8148L205.75 71L209.509 72.3681L210.675 67.1829L206.917 65.8148Z" fill="#191100"/>
<path d="M206.917 66.3333H215.667L219.426 67.7013H210.676L206.917 66.3333Z" fill="#191100"/>
<path d="M228.5 16.1666V27.8333L232.259 29.2014V17.5347L228.5 16.1666Z" fill="#191100"/>
<path d="M216.833 71L215.667 66.3333L219.426 67.7013L220.592 72.368L216.833 71Z" fill="#191100"/>
<path d="M216.833 31.3334L229.083 71L232.842 72.3681L220.592 32.7015L216.833 31.3334Z" fill="#191100"/>
<path d="M229.083 71H216.833L220.592 72.3681H232.842L229.083 71Z" fill="#191100"/>
<path d="M41.8333 71V47.6666H53.4999V71H41.8333Z" fill="url(#paint0_radial_262_36789)" stroke="black"/>
<path d="M48.4999 31.3334H46.8333C44.0718 31.3334 41.8333 33.572 41.8333 36.3334V38C41.8333 40.7615 44.0718 43 46.8333 43H48.4999C51.2613 43 53.4999 40.7615 53.4999 38V36.3334C53.4999 33.572 51.2613 31.3334 48.4999 31.3334Z" fill="url(#paint1_radial_262_36789)" stroke="black"/>
<path fill-rule="evenodd" clip-rule="evenodd" d="M1 43L1.00012 1H228.5V12.0833L12.6668 12.6667V31.3333H36.0001V71H1.00012V55C1.00012 52.2386 3.2387 50 6.00012 50H7.66679C10.4282 50 12.6668 52.2386 12.6668 55V59.3333H24.9168V43H1ZM59.3333 71V27.8333L18.5 27.8333V16.1667H111.833V27.8333L71 27.8333V71H59.3333Z" fill="url(#paint2_radial_262_36789)"/>
<path d="M1.00012 1V0.5H0.500122L0.50012 0.999999L1.00012 1ZM1 43H0.5L0.499999 43.5H1V43ZM228.5 1H229V0.5H228.5V1ZM228.5 12.0833L228.501 12.5833L229 12.582V12.0833H228.5ZM12.6668 12.6667L12.6654 12.1667L12.1668 12.168V12.6667H12.6668ZM12.6668 31.3333H12.1668V31.8333H12.6668V31.3333ZM36.0001 31.3333H36.5001V30.8333H36.0001V31.3333ZM36.0001 71V71.5H36.5001V71H36.0001ZM1.00012 71H0.50012V71.5H1.00012V71ZM12.6668 59.3333H12.1668V59.8333H12.6668V59.3333ZM24.9168 59.3333V59.8333H25.4168V59.3333H24.9168ZM24.9168 43H25.4168V42.5H24.9168V43ZM59.3333 27.8333H59.8333V27.3333H59.3333V27.8333ZM59.3333 71H58.8333V71.5H59.3333V71ZM18.5 27.8333H18V28.3333H18.5V27.8333ZM18.5 16.1667V15.6667H18V16.1667H18.5ZM111.833 16.1667H112.333V15.6667H111.833V16.1667ZM111.833 27.8333V28.3333H112.333V27.8333H111.833ZM71 27.8333V27.3333H70.5V27.8333H71ZM71 71V71.5H71.5V71H71ZM0.50012 0.999999L0.5 43H1.5L1.50012 1L0.50012 0.999999ZM228.5 0.5H1.00012V1.5H228.5V0.5ZM229 12.0833V1H228V12.0833H229ZM12.6681 13.1667L228.501 12.5833L228.499 11.5833L12.6654 12.1667L12.6681 13.1667ZM13.1668 31.3333V12.6667H12.1668V31.3333H13.1668ZM36.0001 30.8333H12.6668V31.8333H36.0001V30.8333ZM36.5001 71V31.3333H35.5001V71H36.5001ZM1.00012 71.5H36.0001V70.5H1.00012V71.5ZM0.50012 55V71H1.50012V55H0.50012ZM6.00012 49.5C2.96256 49.5 0.50012 51.9624 0.50012 55H1.50012C1.50012 52.5147 3.51484 50.5 6.00012 50.5V49.5ZM7.66679 49.5H6.00012V50.5H7.66679V49.5ZM13.1668 55C13.1668 51.9624 10.7044 49.5 7.66679 49.5V50.5C10.1521 50.5 12.1668 52.5147 12.1668 55H13.1668ZM13.1668 59.3333V55H12.1668V59.3333H13.1668ZM24.9168 58.8333H12.6668V59.8333H24.9168V58.8333ZM24.4168 43V59.3333H25.4168V43H24.4168ZM1 43.5H24.9168V42.5H1V43.5ZM58.8333 27.8333V71H59.8333V27.8333H58.8333ZM18.5 28.3333L59.3333 28.3333V27.3333L18.5 27.3333V28.3333ZM18 16.1667V27.8333H19V16.1667H18ZM111.833 15.6667H18.5V16.6667H111.833V15.6667ZM112.333 27.8333V16.1667H111.333V27.8333H112.333ZM71 28.3333L111.833 28.3333V27.3333L71 27.3333V28.3333ZM71.5 71V27.8333H70.5V71H71.5ZM59.3333 71.5H71V70.5H59.3333V71.5Z" fill="black"/>
<path d="M78 71V31.3334H111.25V40.6667H88.5V44.1667H111.25V55.8334H89.0833V59.3334H111.25V71H78Z" fill="url(#paint3_radial_262_36789)" stroke="black"/>
<path d="M117.667 71V16.1666H228.5V27.8333H129.333V38.3333H152.667V48.8333H129.333V59.3333H152.667V71H117.667Z" fill="url(#paint4_radial_262_36789)" stroke="black"/>
<path fill-rule="evenodd" clip-rule="evenodd" d="M184.833 31.3333H171.333V31.3334H159.667V71H171.333V65.1668L177.167 71H188.833L177.167 59.3333H184.833C187.042 59.3333 188.833 57.5425 188.833 55.3333V35.3333C188.833 33.1242 187.042 31.3333 184.833 31.3333ZM171.333 47.6667V43H176.167C176.719 43 177.167 43.4477 177.167 44V46.6667C177.167 47.219 176.719 47.6667 176.167 47.6667H171.333Z" fill="url(#paint5_radial_262_36789)"/>
<path d="M171.333 31.3334V30.8334H170.833V31.3334H171.333ZM171.333 31.3334V31.8334H171.833V31.3334H171.333ZM159.667 31.3334V30.8334H159.167V31.3334H159.667ZM159.667 71.0001H159.167V71.5001H159.667V71.0001ZM171.333 71.0001V71.5001H171.833V71.0001H171.333ZM171.333 65.1668L171.687 64.8132L170.833 63.9597V65.1668H171.333ZM177.167 71L176.813 71.3536L176.96 71.5H177.167V71ZM188.833 71V71.5H190.04L189.187 70.6465L188.833 71ZM177.167 59.3334V58.8334H175.96L176.813 59.6869L177.167 59.3334ZM171.333 43V42.5H170.833V43H171.333ZM171.333 47.6667H170.833V48.1667H171.333V47.6667ZM171.333 31.8334H184.833V30.8334H171.333V31.8334ZM171.833 31.3334V31.3334H170.833V31.3334H171.833ZM159.667 31.8334H171.333V30.8334H159.667V31.8334ZM160.167 71.0001V31.3334H159.167V71.0001H160.167ZM171.333 70.5001H159.667V71.5001H171.333V70.5001ZM170.833 65.1668V71.0001H171.833V65.1668H170.833ZM170.98 65.5203L176.813 71.3536L177.52 70.6465L171.687 64.8132L170.98 65.5203ZM177.167 71.5H188.833V70.5H177.167V71.5ZM189.187 70.6465L177.52 58.9798L176.813 59.6869L188.48 71.3536L189.187 70.6465ZM184.833 58.8334H177.167V59.8334H184.833V58.8334ZM188.333 55.3334C188.333 57.2664 186.766 58.8334 184.833 58.8334V59.8334C187.319 59.8334 189.333 57.8187 189.333 55.3334H188.333ZM188.333 35.3334V55.3334H189.333V35.3334H188.333ZM184.833 31.8334C186.766 31.8334 188.333 33.4004 188.333 35.3334H189.333C189.333 32.8481 187.319 30.8334 184.833 30.8334V31.8334ZM170.833 43V47.6667H171.833V43H170.833ZM176.167 42.5H171.333V43.5H176.167V42.5ZM177.667 44C177.667 43.1716 176.995 42.5 176.167 42.5V43.5C176.443 43.5 176.667 43.7239 176.667 44H177.667ZM177.667 46.6667V44H176.667V46.6667H177.667ZM176.167 48.1667C176.995 48.1667 177.667 47.4951 177.667 46.6667H176.667C176.667 46.9428 176.443 47.1667 176.167 47.1667V48.1667ZM171.333 48.1667H176.167V47.1667H171.333V48.1667Z" fill="black"/>
<path fill-rule="evenodd" clip-rule="evenodd" d="M193.5 71L205.167 31.3334H216.833L229.083 71H216.833L215.667 66.3333H206.917V65.8149L205.75 71H193.5ZM209.425 54.6667H212.75L211 47.6667L209.425 54.6667Z" fill="url(#paint6_radial_262_36789)"/>
<path d="M205.167 31.3334V30.8334H204.793L204.687 31.1923L205.167 31.3334ZM193.5 71L193.02 70.859L192.832 71.5H193.5V71ZM216.833 31.3334L217.311 31.1858L217.202 30.8334H216.833V31.3334ZM229.083 71V71.5H229.761L229.561 70.8525L229.083 71ZM216.833 71L216.348 71.1213L216.443 71.5H216.833V71ZM215.667 66.3333L216.152 66.2121L216.057 65.8333H215.667V66.3333ZM206.917 66.3333H206.417V66.8333H206.917V66.3333ZM206.917 65.8149H207.417L206.429 65.7051L206.917 65.8149ZM205.75 71V71.5H206.15L206.238 71.1098L205.75 71ZM209.425 54.6667L208.937 54.5569L208.8 55.1667H209.425V54.6667ZM212.75 54.6667V55.1667H213.39L213.235 54.5454L212.75 54.6667ZM211 47.6667L211.485 47.5454L210.512 47.557L211 47.6667ZM204.687 31.1923L193.02 70.859L193.98 71.1411L205.646 31.4745L204.687 31.1923ZM216.833 30.8334H205.167V31.8334H216.833V30.8334ZM229.561 70.8525L217.311 31.1858L216.356 31.4809L228.606 71.1476L229.561 70.8525ZM216.833 71.5H229.083V70.5H216.833V71.5ZM215.182 66.4546L216.348 71.1213L217.318 70.8788L216.152 66.2121L215.182 66.4546ZM215.667 65.8333H206.917V66.8333H215.667V65.8333ZM207.417 66.3333V65.8149H206.417V66.3333H207.417ZM206.238 71.1098L207.404 65.9246L206.429 65.7051L205.262 70.8903L206.238 71.1098ZM193.5 71.5H205.75V70.5H193.5V71.5ZM209.425 55.1667H212.75V54.1667H209.425V55.1667ZM210.515 47.788L212.265 54.7879L213.235 54.5454L211.485 47.5454L210.515 47.788ZM209.913 54.7764L211.488 47.7765L210.512 47.557L208.937 54.5569L209.913 54.7764Z" fill="black"/>
<defs>
<radialGradient id="paint0_radial_262_36789" cx="0" cy="0" r="1" gradientUnits="userSpaceOnUse" gradientTransform="translate(43.8026 49.4999) rotate(76.7754) scale(29.9612 47.4915)">
<stop stop-color="#C08200"/>
<stop offset="1" stop-color="#8A5E00"/>
</radialGradient>
<radialGradient id="paint1_radial_262_36789" cx="0" cy="0" r="1" gradientUnits="userSpaceOnUse" gradientTransform="translate(43.8026 32.25) rotate(64.8263) scale(16.1138 44.1517)">
<stop stop-color="#C08200"/>
<stop offset="1" stop-color="#8A5E00"/>
</radialGradient>
<radialGradient id="paint2_radial_262_36789" cx="0" cy="0" r="1" gradientUnits="userSpaceOnUse" gradientTransform="translate(39.4016 6.49995) rotate(33.2112) scale(159.751 521.058)">
<stop stop-color="#C08200"/>
<stop offset="1" stop-color="#8A5E00"/>
</radialGradient>
<radialGradient id="paint3_radial_262_36789" cx="0" cy="0" r="1" gradientUnits="userSpaceOnUse" gradientTransform="translate(83.6125 34.45) rotate(68.4969) scale(53.2926 129.361)">
<stop stop-color="#C08200"/>
<stop offset="1" stop-color="#8A5E00"/>
</radialGradient>
<radialGradient id="paint4_radial_262_36789" cx="0" cy="0" r="1" gradientUnits="userSpaceOnUse" gradientTransform="translate(136.375 20.4749) rotate(46.4686) scale(94.5407 336.007)">
<stop stop-color="#C08200"/>
<stop offset="1" stop-color="#8A5E00"/>
</radialGradient>
<radialGradient id="paint5_radial_262_36789" cx="0" cy="0" r="1" gradientUnits="userSpaceOnUse" gradientTransform="translate(164.59 34.45) rotate(70.9353) scale(52.4608 115.273)">
<stop stop-color="#C08200"/>
<stop offset="1" stop-color="#8A5E00"/>
</radialGradient>
<radialGradient id="paint6_radial_262_36789" cx="0" cy="0" r="1" gradientUnits="userSpaceOnUse" gradientTransform="translate(199.506 34.45) rotate(67.1387) scale(53.8103 137.107)">
<stop stop-color="#C08200"/>
<stop offset="1" stop-color="#8A5E00"/>
</radialGradient>
</defs>
</svg>
